<svg xmlns="http://www.w3.org/2000/svg" viewBox="0 0 248 68" role="img" aria-label="Ecologia Café Orgânico">
  <title>Ecologia Café Orgânico</title>

  <!-- Partial circle arc (inspired by brand leaf icons) -->
  <path d="M30 58 A26 26 0 1 1 56 32" fill="none" stroke="#4A7C35" stroke-width="2" stroke-linecap="round"/>

  <!-- Left leaf -->
  <path d="M30 10 C30 10 16 17 16 30 C16 30 24 26 30 10Z" fill="#4A7C35"/>
  <!-- Right leaf -->
  <path d="M30 10 C30 10 44 17 44 30 C44 30 36 26 30 10Z" fill="#2D4A1E"/>
  <!-- Stem -->
  <line x1="30" y1="11" x2="30" y2="52" stroke="#2D4A1E" stroke-width="1.6" stroke-linecap="round"/>
  <!-- Root branches -->
  <path d="M30 44 C26 39 19 41 16 46" fill="none" stroke="#4A7C35" stroke-width="1.4" stroke-linecap="round"/>
  <path d="M30 44 C34 39 41 41 44 46" fill="none" stroke="#4A7C35" stroke-width="1.4" stroke-linecap="round"/>

  <!-- Brand name -->
  <text x="72" y="33" font-family="Georgia, 'Times New Roman', serif" font-size="29" font-weight="bold" fill="#2D4A1E" letter-spacing="0.4">Ecologia</text>
  <!-- Subtitle -->
  <text x="74" y="51" font-family="'Arial', 'Helvetica', sans-serif" font-size="10" fill="#6B9E4A" letter-spacing="4" font-weight="400">CAFÉ ORGÂNICO</text>
</svg>
