<?xml version="1.0" encoding="UTF-8"?><svg id="Camada_2" xmlns="http://www.w3.org/2000/svg" viewBox="0 0 45.71 56.55"><g id="Camada_1-2"><path d="M27.07,32.41c-.12-1.83.45-3.48,1.62-4.76,1.32-1.44,3.29-2.28,5.56-2.34h.25c3.9,0,6.81,2.82,6.92,6.69l.02.81-.8-.12c-1.53-.23-3.24-.35-5.06-.35-2.66,0-5.33.24-7.72.7l-.75.15-.05-.76h0ZM34.3,26.65c-1.9.05-3.54.73-4.61,1.9-.75.82-1.19,1.86-1.27,3.01,2.26-.38,4.74-.58,7.18-.58,1.56,0,3.04.08,4.41.25-.42-2.75-2.55-4.55-5.43-4.58h-.28Z" fill="#010101"/><path d="M4.08,46.96c-.19,0-.38-.07-.52-.22-.28-.29-.27-.75.02-1.03.35-.34,8.73-8.31,20.51-10.88,13.62-3.12,20.68-.03,20.97.11.36.17.53.6.36.96-.17.37-.6.53-.96.36-.07-.03-6.96-3.01-20.05-.01-11.37,2.47-19.74,10.42-19.82,10.5-.14.13-.32.2-.5.2Z" fill="#010101"/><path d="M15.8,55.19c-.11,0-.23-.03-.33-.08-.36-.18-.5-.62-.31-.98.21-.4,5.13-9.91,11.84-14.52,9.94-6.63,17.64-4.93,17.96-4.85.39.09.63.48.54.88-.09.39-.48.63-.87.54-.12-.02-7.47-1.59-16.82,4.64-6.4,4.4-11.31,13.88-11.36,13.97-.13.25-.38.4-.65.4Z" fill="#010101"/><path d="M29.35,55.7s-.08,0-.12-.01c-.4-.07-.66-.44-.6-.84.05-.31,1.31-7.68,5.45-13.21,5.63-7.43,10.59-7.02,10.81-7,.4.04.69.4.65.8-.04.4-.4.69-.8.65-.03,0-4.42-.28-9.5,6.43-3.92,5.24-5.16,12.5-5.18,12.57-.06.36-.37.61-.72.61" fill="#010101"/><path d="M23.21,56.55c-.45,0-.74-.02-.83-.02-.02,0-.04,0-.06,0-.04,0-.11-.01-.22-.02-5.2-.46-8.99-2.01-11.25-3.23C4.44,49.8.8,44.15.04,36.49c-.85-12.29,10.77-18.3,13.47-19.53-.29-2.02-.74-8.67,4.77-13.92.02-.01.03-.03.04-.04,5.85-4.74,14.44-2.49,14.8-2.39.39.1.62.5.51.89-.1.39-.5.62-.89.51-.08-.02-8.22-2.15-13.48,2.09-5.81,5.54-4.25,13.05-4.23,13.13.08.35-.12.71-.45.84-.14.05-13.98,5.56-13.1,18.29.5,5.1,3.53,17.18,20.75,18.69.11.01.2.02.25.02.4.02,5.1.22,10.07-1.79,6.08-2.45,9.92-7.02,11.42-13.57,1.04-7.1-.97-13.08-5.67-16.86-7.31-5.97-19.35-2.21-19.47-2.17-.38.12-.79-.09-.91-.47-.12-.38.09-.79.47-.91.13-.04,3.25-1.03,7.37-1.24,5.51-.28,10.17.98,13.46,3.67,5.12,4.11,7.32,10.59,6.19,18.23,0,.02,0,.04-.01.05-3.54,15.55-18.47,16.54-22.21,16.54" fill="#010101"/><path d="M14.33,18.13c-.31,0-.59-.2-.69-.5-.12-.38.09-.79.47-.91.08-.03,8.5-2.75,13.38-5.56,5.77-3.45,4.78-9.44,4.73-9.69-.07-.4.19-.77.59-.85.39-.07.77.19.84.58.01.07,1.23,7.22-5.43,11.2-5.03,2.9-13.32,5.58-13.67,5.69-.07.02-.15.03-.22.03Z" fill="#010101"/><path d="M20.84,30.59c-.12,0-.23,0-.34-.02-.8-.08-1.99-.5-3.12-2.05l-.03-.04s-.02-.03-.03-.04c-2.25-3.33-3.65-10.6-3.71-10.91-.08-.4.18-.78.58-.85.4-.08.78.18.85.58.02.07,1.4,7.26,3.48,10.36l.03.05c.81,1.11,1.59,1.41,2.09,1.46.7.07,1.44-.25,2.22-.95l.08-.08c1.53-1.5,2.28-3.12,2.21-4.79-.15-2.39-2.04-3.69-2.05-3.71-.33-.23-.42-.68-.2-1.01s.68-.42,1.01-.2c.1.07,2.5,1.72,2.7,4.84.08,2.12-.81,4.1-2.65,5.9l-.08.08s-.02.02-.03.03c-.99.9-2,1.35-3.01,1.35" fill="#010101"/></g></svg>