<?xml version="1.0" encoding="UTF-8"?><svg id="Camada_2" xmlns="http://www.w3.org/2000/svg" viewBox="0 0 74.01 82.82"><g id="Camada_1-2"><path d="M5.89,73.96l-.55-2.35h-2.91l-.56,2.35H0l2.75-11.07h2.39l2.7,11.07h-1.95,0ZM3.94,64.65h-.06l-1.2,5.49h2.44l-1.17-5.49h0Z" fill="#010101"/><path d="M17.41,70.86c0,.58-.1,1.07-.29,1.46s-.44.71-.73.95c-.3.25-.63.42-1,.52-.37.1-.73.16-1.09.16h-3.28v-11.07h2.94c.32,0,.67.04,1.03.12.36.08.7.22,1,.42.3.2.55.48.75.85s.3.83.3,1.4c0,.69-.15,1.23-.44,1.63-.29.4-.63.67-1.02.83v.03c.21.05.42.14.63.27.21.13.41.3.59.52.18.22.32.5.44.81.12.32.17.69.17,1.1M15.35,65.96c0-.28-.04-.52-.13-.71s-.2-.35-.34-.47c-.14-.12-.3-.21-.49-.26-.19-.05-.38-.08-.58-.08h-1.03v3.08h1.06c.19,0,.37-.03.55-.08.18-.06.34-.15.48-.27.14-.12.25-.29.34-.48.09-.2.13-.44.13-.72M15.62,70.71c0-.32-.05-.6-.16-.82-.1-.22-.24-.41-.4-.55-.17-.14-.35-.24-.55-.3-.2-.06-.4-.09-.59-.09h-1.14v3.46h1.18c.23,0,.44-.03.64-.1.2-.07.37-.17.52-.32.15-.14.27-.32.36-.52.09-.21.13-.46.13-.75" fill="#010101"/><path d="M26.77,68.41c0,.88-.09,1.67-.27,2.39-.18.71-.45,1.33-.79,1.84-.35.51-.76.91-1.26,1.19-.5.28-1.05.42-1.67.42s-1.18-.14-1.67-.42c-.49-.28-.91-.68-1.25-1.19-.35-.51-.61-1.12-.79-1.84-.18-.71-.27-1.51-.27-2.39s.09-1.67.26-2.38c.18-.71.44-1.32.78-1.83.35-.51.76-.9,1.26-1.18.5-.28,1.06-.41,1.68-.41s1.17.14,1.67.41c.5.28.91.67,1.26,1.18.34.51.61,1.12.79,1.83.18.71.27,1.5.27,2.38ZM24.83,68.41c0-.56-.05-1.09-.13-1.59-.09-.5-.22-.92-.39-1.28-.17-.36-.39-.65-.64-.85-.25-.21-.55-.31-.88-.31s-.65.1-.9.31c-.26.21-.47.49-.64.85-.17.36-.3.79-.38,1.28-.08.5-.13,1.03-.13,1.59s.04,1.09.13,1.59c.08.5.21.93.38,1.29.17.37.38.65.64.86.25.21.56.31.9.31s.64-.1.9-.31c.26-.21.47-.5.64-.86.17-.37.3-.8.38-1.29.08-.5.13-1.03.13-1.59Z" fill="#010101"/><path d="M33.38,73.96l-.55-2.35h-2.91l-.56,2.35h-1.87l2.75-11.07h2.39l2.7,11.07h-1.95,0ZM31.43,64.65h-.06l-1.2,5.49h2.44l-1.17-5.49h0Z" fill="#010101"/><path d="M40.61,64.48v9.48h-1.85v-9.48h-2.08v-1.59h6v1.59h-2.08Z" fill="#010101"/><path d="M43.94,73.96v-11.08h4.96v1.66h-3.16v2.94h2.92v1.53h-2.92v3.27h3.31v1.68h-5.11Z" fill="#010101"/><path d="M55.49,73.96l-1.72-4.73h-1.05v4.73h-1.81v-11.07h3.16c.46,0,.88.06,1.27.18.38.12.72.31.99.57.28.26.49.59.65.99.16.4.23.87.23,1.42,0,.43-.05.81-.17,1.13-.11.33-.25.61-.41.84-.17.23-.35.41-.55.56-.2.14-.4.24-.6.29l1.99,5.1h-1.97ZM55.36,66.14c0-.33-.05-.61-.14-.83-.09-.22-.21-.39-.37-.51-.15-.13-.32-.22-.51-.27-.19-.05-.38-.08-.56-.08h-1.06v3.41h1.06c.46,0,.84-.14,1.13-.43s.45-.72.45-1.29" fill="#010101"/><path d="M63.66,73.96l-1.72-4.73h-1.05v4.73h-1.81v-11.07h3.16c.46,0,.88.06,1.27.18.38.12.72.31.99.57.28.26.49.59.65.99.16.4.23.87.23,1.42,0,.43-.05.81-.17,1.13-.11.33-.25.61-.41.84-.17.23-.35.41-.55.56-.2.14-.4.24-.6.29l1.99,5.1h-1.97ZM63.54,66.14c0-.33-.05-.61-.14-.83-.09-.22-.22-.39-.37-.51-.15-.13-.32-.22-.51-.27-.19-.05-.38-.08-.56-.08h-1.06v3.41h1.06c.46,0,.84-.14,1.13-.43.3-.29.45-.72.45-1.29" fill="#010101"/><path d="M72.06,73.96l-.55-2.35h-2.91l-.56,2.35h-1.87l2.75-11.07h2.39l2.7,11.07h-1.95,0ZM70.1,64.65h-.06l-1.21,5.49h2.44l-1.17-5.49Z" fill="#010101"/><path d="M41.35,32.41c-.12-1.83.45-3.48,1.62-4.76,1.32-1.44,3.29-2.28,5.56-2.34h.25c3.9,0,6.81,2.82,6.92,6.69l.02.81-.8-.12c-1.53-.23-3.24-.35-5.06-.35-2.66,0-5.33.24-7.72.7l-.75.15-.05-.76h0ZM48.57,26.65c-1.9.05-3.54.73-4.61,1.9-.75.82-1.19,1.86-1.27,3.01,2.26-.38,4.74-.58,7.18-.58,1.56,0,3.04.08,4.41.25-.42-2.75-2.55-4.55-5.43-4.58h-.28Z" fill="#010101"/><path d="M18.35,46.96c-.19,0-.38-.07-.52-.22-.28-.29-.27-.75.02-1.03.35-.34,8.73-8.31,20.51-10.88,13.62-3.12,20.68-.03,20.97.11.36.17.53.6.36.96-.17.37-.6.53-.96.36-.07-.03-6.96-3.01-20.05-.01-11.37,2.47-19.74,10.42-19.82,10.5-.14.13-.32.2-.5.2Z" fill="#010101"/><path d="M30.08,55.19c-.11,0-.23-.03-.33-.08-.36-.18-.5-.62-.31-.98.21-.4,5.13-9.91,11.84-14.52,9.94-6.63,17.64-4.93,17.96-4.85.39.09.63.48.54.88-.09.39-.48.63-.87.54-.12-.02-7.47-1.59-16.82,4.64-6.4,4.4-11.31,13.88-11.36,13.97-.13.25-.38.4-.65.4Z" fill="#010101"/><path d="M43.62,55.7s-.08,0-.12-.01c-.4-.07-.66-.44-.6-.84.05-.31,1.31-7.68,5.45-13.21,5.63-7.43,10.59-7.02,10.81-7,.4.04.69.4.65.8-.04.4-.4.69-.8.65-.03,0-4.42-.28-9.5,6.43-3.92,5.24-5.16,12.5-5.18,12.57-.06.36-.37.61-.72.61" fill="#010101"/><path d="M37.48,56.55c-.45,0-.74-.02-.83-.02-.02,0-.04,0-.06,0-.04,0-.11-.01-.22-.02-5.2-.46-8.99-2.01-11.25-3.23-6.42-3.47-10.07-9.12-10.82-16.78-.85-12.29,10.77-18.3,13.47-19.53-.29-2.02-.74-8.67,4.77-13.92.02-.01.03-.03.04-.04,5.85-4.74,14.44-2.49,14.8-2.39.39.1.62.5.51.89-.1.39-.5.62-.89.51-.08-.02-8.22-2.15-13.48,2.09-5.81,5.54-4.25,13.05-4.23,13.13.08.35-.12.71-.45.84-.14.05-13.98,5.56-13.1,18.29.5,5.1,3.53,17.18,20.75,18.69.11.01.2.02.25.02.4.02,5.1.22,10.07-1.79,6.08-2.45,9.92-7.02,11.42-13.57,1.04-7.1-.97-13.08-5.67-16.86-7.31-5.97-19.35-2.21-19.47-2.17-.38.12-.79-.09-.91-.47-.12-.38.09-.79.47-.91.13-.04,3.25-1.03,7.37-1.24,5.51-.28,10.17.98,13.46,3.67,5.12,4.11,7.32,10.59,6.19,18.23,0,.02,0,.04-.01.05-3.54,15.55-18.47,16.54-22.21,16.54" fill="#010101"/><path d="M28.61,18.13c-.31,0-.59-.2-.69-.5-.12-.38.09-.79.47-.91.08-.03,8.5-2.75,13.38-5.56,5.77-3.45,4.78-9.44,4.73-9.69-.07-.4.19-.77.59-.85.39-.07.77.19.84.58.01.07,1.23,7.22-5.43,11.2-5.03,2.9-13.32,5.58-13.67,5.69-.07.02-.15.03-.22.03Z" fill="#010101"/><path d="M35.12,30.59c-.12,0-.23,0-.34-.02-.8-.08-1.99-.5-3.12-2.05l-.03-.04s-.02-.03-.03-.04c-2.25-3.33-3.65-10.6-3.71-10.91-.08-.4.18-.78.58-.85.4-.08.78.18.85.58.02.07,1.4,7.26,3.48,10.36l.03.05c.81,1.11,1.59,1.41,2.09,1.46.7.07,1.44-.25,2.22-.95l.08-.08c1.53-1.5,2.28-3.12,2.21-4.79-.15-2.39-2.04-3.69-2.05-3.71-.33-.23-.42-.68-.2-1.01s.68-.42,1.01-.2c.1.07,2.5,1.72,2.7,4.84.08,2.12-.81,4.1-2.65,5.9l-.08.08s-.02.02-.03.03c-.99.9-2,1.35-3.01,1.35" fill="#010101"/><path d="M15.03,78.39h1.75v.43h-1.28v1.52h1.13v.41h-1.13v1.58h1.3v.43h-1.77v-4.36Z" fill="#1d1d1b"/><path d="M18.96,79.34s0-.11-.02-.18-.05-.15-.11-.21c-.04-.05-.09-.08-.15-.11-.06-.03-.14-.04-.23-.04-.1,0-.17.01-.24.04-.06.03-.12.07-.16.11-.06.07-.1.15-.12.25s-.03.18-.03.25v2.35s0,.11.03.18c.02.08.05.15.11.22.04.04.09.08.15.12s.14.05.23.05c.07,0,.14-.01.22-.04.08-.02.14-.07.19-.13.04-.05.07-.11.1-.18.02-.07.03-.16.03-.27v-.14h.47v.16c0,.17-.02.32-.07.46-.04.14-.12.25-.22.34-.09.08-.2.14-.31.18s-.26.06-.43.06c-.15,0-.28-.02-.39-.06-.11-.04-.2-.09-.27-.16-.06-.06-.11-.12-.15-.19-.04-.07-.07-.13-.09-.2s-.03-.13-.04-.19c0-.06,0-.12,0-.17v-2.58c0-.07,0-.14.02-.2.01-.06.03-.13.06-.19.03-.06.06-.12.1-.17.04-.05.08-.1.13-.14.08-.07.18-.13.29-.17.11-.04.24-.07.38-.07.14,0,.27.02.39.05s.23.09.32.17c.09.07.16.17.21.29.05.12.08.27.08.44v.28h-.46v-.23Z" fill="#1d1d1b"/><path d="M20.64,82.75c-.12-.05-.23-.11-.31-.19-.07-.07-.13-.14-.17-.21-.04-.07-.07-.15-.09-.22s-.03-.15-.04-.23c0-.08,0-.16,0-.24v-2.16c0-.08,0-.16,0-.24,0-.08.02-.16.04-.23.02-.07.05-.15.09-.22.04-.07.1-.14.17-.21.09-.08.19-.15.31-.19.12-.04.26-.07.42-.07s.3.02.42.07c.12.05.23.11.31.19.07.07.13.14.17.21.04.07.07.15.09.22.02.08.03.15.04.23,0,.08,0,.16,0,.24v2.16c0,.08,0,.16,0,.24,0,.08-.02.16-.04.23s-.05.15-.09.22c-.04.07-.1.14-.17.21-.09.08-.19.15-.31.19-.12.05-.26.07-.42.07s-.3-.02-.42-.07ZM21.3,82.32c.07-.03.12-.06.17-.11.08-.07.12-.15.14-.23.02-.08.03-.15.03-.23v-2.35c0-.08,0-.16-.03-.23s-.06-.15-.14-.22c-.05-.05-.1-.08-.17-.11-.07-.03-.15-.04-.25-.04s-.18.01-.25.04c-.07.03-.13.07-.17.11-.07.07-.12.14-.14.22s-.03.15-.03.23v2.35c0,.08,0,.16.03.23.02.08.06.15.14.23.05.04.1.08.17.11.07.03.15.04.25.04s.18-.01.25-.04Z" fill="#1d1d1b"/><path d="M23.45,78.39v3.93h1.38v.43h-1.84v-4.36h.47Z" fill="#1d1d1b"/><path d="M25.79,82.75c-.12-.05-.23-.11-.31-.19-.07-.07-.13-.14-.17-.21-.04-.07-.07-.15-.09-.22s-.03-.15-.04-.23c0-.08,0-.16,0-.24v-2.16c0-.08,0-.16,0-.24,0-.08.02-.16.04-.23.02-.07.05-.15.09-.22.04-.07.1-.14.17-.21.09-.08.19-.15.31-.19.12-.04.26-.07.42-.07s.3.02.42.07c.12.05.23.11.31.19.07.07.13.14.17.21.04.07.07.15.09.22.02.08.03.15.04.23,0,.08,0,.16,0,.24v2.16c0,.08,0,.16,0,.24,0,.08-.02.16-.04.23s-.05.15-.09.22c-.04.07-.1.14-.17.21-.09.08-.19.15-.31.19-.12.05-.26.07-.42.07s-.3-.02-.42-.07ZM26.46,82.32c.07-.03.12-.06.17-.11.08-.07.12-.15.14-.23.02-.08.03-.15.03-.23v-2.35c0-.08,0-.16-.03-.23s-.06-.15-.14-.22c-.05-.05-.1-.08-.17-.11-.07-.03-.15-.04-.25-.04s-.18.01-.25.04c-.07.03-.13.07-.17.11-.07.07-.12.14-.14.22s-.03.15-.03.23v2.35c0,.08,0,.16.03.23.02.08.06.15.14.23.05.04.1.08.17.11.07.03.15.04.25.04s.18-.01.25-.04Z" fill="#1d1d1b"/><path d="M29.81,82.41c-.03.06-.07.11-.12.15-.04.04-.09.08-.14.12-.04.03-.08.05-.13.07-.04.02-.09.03-.13.05-.04.01-.09.02-.13.02-.04,0-.08,0-.12,0-.13,0-.26-.02-.38-.05s-.23-.11-.33-.23c-.05-.06-.08-.12-.11-.19-.03-.07-.05-.13-.07-.2s-.02-.13-.03-.19c0-.06,0-.12,0-.16v-2.3c0-.13,0-.26.03-.39.02-.13.08-.26.17-.39.06-.08.12-.15.2-.2.08-.05.15-.09.23-.12.08-.03.15-.05.22-.06.07,0,.14-.01.19-.01.16,0,.3.02.43.06s.24.1.33.18c.09.09.16.2.21.32.05.13.08.28.08.47v.2h-.47v-.19s0-.1-.02-.17c-.01-.07-.04-.13-.07-.19-.04-.06-.1-.12-.17-.16-.07-.04-.18-.07-.3-.07-.11,0-.2.02-.27.06-.07.04-.13.09-.17.15-.06.08-.1.17-.11.26s-.03.18-.03.26v2.13c0,.11.01.21.03.3.02.09.05.16.09.22.05.06.1.11.18.14.07.03.16.05.26.05s.19-.02.27-.06c.08-.04.13-.09.18-.17.05-.07.08-.15.11-.25.02-.1.03-.21.03-.33v-.7h-.55v-.4h1.02v2.3h-.27l-.12-.35Z" fill="#1d1d1b"/><path d="M31.58,78.39v4.36h-.47v-4.36h.47Z" fill="#1d1d1b"/><path d="M34.19,82.76l-.22-.97h-.98l-.21.97h-.46l.95-4.36h.42l.95,4.36h-.46ZM33.47,79.33l-.42,2.06h.85l-.44-2.06Z" fill="#1d1d1b"/><path d="M36.87,78.39h1.75v.43h-1.28v1.52h1.13v.41h-1.13v1.58h1.3v.43h-1.77v-4.36Z" fill="#1d1d1b"/><path d="M42.65,78.39v.43h-.81v3.93h-.47v-3.93h-.8v-.43h2.08Z" fill="#1d1d1b"/><path d="M43.77,78.39v3.36c0,.18.04.33.13.44.09.11.22.17.39.17s.31-.06.39-.17c.09-.11.13-.26.13-.44v-3.36h.47v3.26c0,.23-.03.42-.09.57-.06.15-.14.27-.24.35s-.2.15-.32.18-.23.05-.34.05-.23-.02-.34-.05-.22-.1-.32-.18-.18-.21-.24-.35c-.06-.15-.09-.34-.09-.57v-3.26h.47Z" fill="#1d1d1b"/><path d="M47.07,78.39c.08,0,.16,0,.25,0s.17.02.26.04c.08.02.17.06.25.1.08.04.15.11.21.18.06.08.11.17.14.28s.05.25.05.41v.34c0,.12-.01.23-.04.33-.03.1-.06.19-.11.27-.05.08-.11.15-.19.2-.08.05-.16.1-.26.13l.7,2.06h-.49l-.64-1.96h-.53v1.96h-.47v-4.36h.87ZM46.67,80.39h.46c.09,0,.17-.01.24-.04.08-.02.14-.06.2-.11.06-.05.1-.11.14-.18.03-.07.05-.16.05-.25v-.41c0-.14-.02-.24-.07-.32-.04-.08-.1-.14-.17-.18-.07-.04-.14-.07-.21-.08-.08,0-.14-.01-.2-.01h-.44v1.59Z" fill="#1d1d1b"/><path d="M49.54,78.39v4.36h-.47v-4.36h.47Z" fill="#1d1d1b"/><path d="M51.97,79.44c0-.06,0-.13-.02-.22-.01-.09-.05-.17-.11-.25-.04-.05-.09-.09-.15-.12-.06-.04-.15-.06-.26-.06-.06,0-.12,0-.19.03-.07.02-.13.06-.19.12-.08.08-.12.17-.14.26-.02.1-.03.19-.03.27,0,.07,0,.15.02.25s.04.19.1.27c.05.06.1.11.17.15s.12.07.18.09l.4.14c.09.03.19.08.29.13.1.06.19.13.26.23.08.11.13.22.15.34.02.12.03.25.03.38v.16c0,.22-.03.4-.08.56-.05.16-.12.28-.21.38-.08.08-.18.15-.32.2-.13.05-.29.08-.46.08-.22,0-.39-.03-.53-.1-.14-.07-.24-.15-.31-.24-.05-.06-.08-.13-.11-.21-.03-.08-.04-.15-.06-.22-.01-.07-.02-.14-.02-.19,0-.05,0-.09,0-.1v-.16h.47v.12c0,.06,0,.13.02.22s.05.17.1.24c.07.08.15.13.23.15s.15.03.2.03c.15,0,.25-.02.32-.07.07-.04.12-.09.16-.13.06-.07.09-.16.11-.25.01-.09.02-.18.02-.25v-.17c0-.08,0-.17-.02-.27-.01-.1-.05-.18-.1-.25-.05-.07-.12-.12-.19-.16-.07-.04-.13-.06-.17-.08l-.47-.17c-.1-.04-.21-.09-.31-.16s-.18-.17-.24-.31c-.04-.1-.07-.2-.08-.3,0-.1-.01-.21-.01-.32v-.13c0-.17.03-.33.09-.46.06-.13.13-.24.22-.32.09-.1.2-.16.33-.2.12-.04.25-.05.39-.05.15,0,.29.02.41.07.12.05.23.12.31.21.09.09.16.2.2.34.05.14.07.29.07.46v.15h-.47v-.12Z" fill="#1d1d1b"/><path d="M53.27,78.39h.47l.92,2.73h.02l.88-2.73h.47v4.36h-.47v-2.95h-.02l-.78,2.22h-.23l-.78-2.22h-.02v2.95h-.47v-4.36Z" fill="#1d1d1b"/><path d="M57.54,82.75c-.12-.05-.23-.11-.31-.19-.07-.07-.13-.14-.17-.21-.04-.07-.07-.15-.09-.22s-.03-.15-.04-.23c0-.08,0-.16,0-.24v-2.16c0-.08,0-.16,0-.24,0-.08.02-.16.04-.23.02-.07.05-.15.09-.22.04-.07.1-.14.17-.21.09-.08.19-.15.31-.19.12-.04.26-.07.42-.07s.3.02.42.07c.12.05.23.11.31.19.07.07.13.14.17.21.04.07.07.15.09.22.02.08.03.15.04.23,0,.08,0,.16,0,.24v2.16c0,.08,0,.16,0,.24,0,.08-.02.16-.04.23s-.05.15-.09.22c-.04.07-.1.14-.17.21-.09.08-.19.15-.31.19-.12.05-.26.07-.42.07s-.3-.02-.42-.07ZM58.21,82.32c.07-.03.12-.06.17-.11.08-.07.12-.15.14-.23.02-.08.03-.15.03-.23v-2.35c0-.08,0-.16-.03-.23s-.06-.15-.14-.22c-.05-.05-.1-.08-.17-.11-.07-.03-.15-.04-.25-.04s-.18.01-.25.04c-.07.03-.13.07-.17.11-.07.07-.12.14-.14.22s-.03.15-.03.23v2.35c0,.08,0,.16.03.23.02.08.06.15.14.23.05.04.1.08.17.11.07.03.15.04.25.04s.18-.01.25-.04Z" fill="#1d1d1b"/></g></svg>